<?xml version="1.0" encoding="UTF-8"?>
<svg id="Layer_1" xmlns="http://www.w3.org/2000/svg" version="1.1" viewBox="0 0 747.49 903.42">
  <!-- Generator: Adobe Illustrator 29.7.1, SVG Export Plug-In . SVG Version: 2.1.1 Build 8)  -->
  <defs>
    <style>
      .st0 {
        fill: #fff;
      }
    </style>
  </defs>
  <path class="st0" d="M495.32,187.92c10.53-108.05-114.12-174.26-199.56-106.42-30.98,24.6-48.04,65.71-43.84,105.09l-.65.9c-61.68,8.94-121.59,27.02-179.32,49.91-2.54,1.87-1.31,18.51-1.48,22.6-5.59,135.45,1.94,276.93,74.47,395.3,53.16,86.75,136.68,151.41,228.09,194.11,102.81-46.07,195.28-122.86,246.67-224.63,52.73-104.43,61.3-223.8,58.19-339.08-.43-16.01.2-32.2-1.95-48.06-58.05-22.98-118.54-41.36-180.64-49.71Z"/>
  <path d="M495.32,187.92c62.1,8.35,122.59,26.73,180.64,49.71,2.14,15.86,1.52,32.05,1.95,48.06,3.11,115.28-5.46,234.65-58.19,339.08-51.39,101.77-143.86,178.57-246.67,224.63-91.41-42.7-174.93-107.36-228.09-194.11-72.53-118.37-80.06-259.85-74.47-395.3.17-4.08-1.06-20.73,1.48-22.6,57.72-22.89,117.63-40.97,179.32-49.91l.65-.9c-4.2-39.38,12.86-80.49,43.84-105.09,85.44-67.83,210.09-1.63,199.56,106.42ZM412.75,136.54c-3.5,5.61-7.14,10.79-8.76,17.4-1.22,4.98-1.17,22.45-5,24.36-4.72,2.35-8.45-1.38-10.14-5.49-6.2-15.05,3.44-31.1,4.61-45.93,1.72-21.87-8.04-39.03-28.42-47.25.95,5.07,3.66,9.84,3.73,15.15.3,20.9-24.81,35.74-36.25,51-24.4,32.58-12.57,74.75,28.83,81.59-14.97-13.71-16.81-30.8-9.34-49.25l12.09-19.56c-1.3,11.66-2.78,23.5,4.6,33.49,8.03,10.87,31.97,18.38,16.52,36.24,24.64-5.55,44.94-27.74,39.96-54.18l-12.42-37.57ZM409.8,249.67c-77.24,5.06-85.19,115.38-17.97,133.05,41.68,10.95,89.57-6.03,93.39-53.96,3.81-47.85-26.6-82.29-75.42-79.09ZM320.97,297.12v-39c-6.62-2.55-16.21-4.5-23.41-5.04-54.91-4.09-93.39,28.41-89.5,84.91,4.36,63.27,76.1,58.34,117.5,34.83v-32.58c-7.33-.17-5.63,2.11-9.2,5.95-13.39,14.4-34.51,23.04-53.84,15.34-19.58-7.79-19.63-42.61-13.82-59.15,10.99-31.27,48.09-32.47,64.2-5.46l8.08.19ZM590.77,349.43l-42.68-82.58-48.17-8.26c4.07,4.66,8.45,9.55,9.18,16.05-2.08,30.77,2.76,65.14.03,95.48-.66,7.32-4.5,12.57-10.13,16.93l46.8,6.43c-1.33-3.94-5.24-6.01-6.87-10.1-.72-1.81-2.3-8.06-2.3-9.63v-63.78l47.03,89.7,32.8,7.57v-110.58c0-3.63,6.08-12.58,10.09-13.32l-1.6-1.6-44.28-9.39c3.02,3.75,10.09,12.14,10.09,16.97v60.11ZM188.83,271.43l-53.22,11.01c6.22,4.86,8.62,8.93,9.22,16.93,2.17,29-1.71,60.69-.03,89.98l-2.59,8.42-6.58,9.47,53.22-11.02c-6.89-5.19-9.51-10.05-10.13-18.76-2.05-28.48,1.62-59.4.03-88.14.81-7.48,5.23-12.67,10.1-17.88ZM359.32,399.25c-47.22,4.81-85.57,47.02-88.81,93.8-6.28,90.49,99.8,146.48,169.27,87.6,80.29-68.04,24.42-192.09-80.46-181.4ZM252.14,487.08l-109.19,5.49,109.2,10.09c-1.71-4.8-1.18-10.65,0-15.59ZM605.44,491.68l-110.12-4.59c2.44,5.06-.27,10.38,0,15.59,34.19-1.16,68.21-5.57,102.2-9.3l7.92-1.7ZM253.06,705.02c-1.26-7.55.93-18.23,0-26.15l13.83,3.37,19.2,40.22,33.04,5.03c-11.36-13.66-18.28-30.37-27.44-45.52-.46-1.84.25-1.01,1.18-1.36,16.66-6.28,20.54-14.39,18.95-32.53-1.75-20-16.72-26.24-33.81-30.42-19.65-4.81-40-7.26-59.82-11.29,1.36,3.68,4.61,5.99,6.3,9.75,6.78,15.09-1.05,57.82,1.95,76.05-.24,5.29-4.36,8.6-7.34,12.38l39.45,11.94c.46-.55-5.14-9.36-5.5-11.47ZM432.01,726.58c30.49-5.67,72.78-10.4,90.69-39.15,10.4-16.7,14-46.44,1.84-63-20.12-27.4-66.4-3.83-93.44-1.52,5.04,4.13,8.61,9.24,9.21,16.01,1.52,17,1.66,52.92-.05,69.77-.73,7.17-4.46,12.18-8.25,17.9ZM412.74,624.73h-80.75c4.99,5.72,9.39,8.63,10.13,16.94,2.09,23.29-1.57,49.74-.12,73.37-.88,6.49-5.25,9.69-9.1,14.29h81.67s0-28.44,0-28.44c-2.52,2.23-3.63,4.68-6.66,6.65-5.76,3.75-16.17,4.17-23.13,4.4-5.04.17-10.14-.2-15.18-.04v-23.4c0-.27-.87-.57-.89-.92,1.28-2.12,3.25-.23,5.93-.37,10.54-.54,22.09-3.83,30.75,4.5v-29.37c-2.05,1.18-8.67,5.51-10.55,5.51h-26.15c-.24-.67.92-1.1.92-1.38v-20.19c0-.2-1.37-1.04-.92-1.37,15.1,1.84,33.54-5.82,44.05,8.25v-28.45Z"/>
  <path class="st0" d="M409.8,249.67c48.82-3.2,79.23,31.24,75.42,79.09-3.82,47.93-51.71,64.91-93.39,53.96-67.22-17.67-59.27-127.99,17.97-133.05ZM411.6,272.58c-38.65,5.22-41.68,96.96,10.67,90.51,36.86-4.54,37.61-97.04-10.67-90.51Z"/>
  <path class="st0" d="M590.77,349.43v-60.11c0-4.83-7.08-13.22-10.09-16.97l44.28,9.39,1.6,1.6c-4.01.74-10.09,9.69-10.09,13.32v110.58l-32.8-7.57-47.03-89.7v63.78c0,1.57,1.58,7.82,2.3,9.63,1.63,4.09,5.54,6.16,6.87,10.1l-46.8-6.43c5.64-4.36,9.47-9.61,10.13-16.93,2.73-30.34-2.12-64.71-.03-95.48-.73-6.5-5.11-11.39-9.18-16.05l48.17,8.26,42.68,82.58Z"/>
  <path class="st0" d="M320.97,297.12l-8.08-.19c-16.11-27.01-53.2-25.8-64.2,5.46-5.82,16.54-5.76,51.35,13.82,59.15,19.33,7.7,40.45-.94,53.84-15.34,3.57-3.84,1.87-6.12,9.2-5.95v32.58c-41.4,23.51-113.14,28.44-117.5-34.83-3.89-56.5,34.59-89,89.5-84.91,7.2.54,16.79,2.49,23.41,5.04v39Z"/>
  <path class="st0" d="M412.75,136.54l12.42,37.57c4.97,26.44-15.33,48.63-39.96,54.18,15.45-17.86-8.49-25.37-16.52-36.24-7.38-9.98-5.9-21.83-4.6-33.49l-12.09,19.56c-7.47,18.46-5.63,35.54,9.34,49.25-41.4-6.83-53.24-49.01-28.83-81.59,11.43-15.26,36.55-30.1,36.25-51-.08-5.3-2.79-10.08-3.73-15.15,20.39,8.22,30.14,25.37,28.42,47.25-1.17,14.83-10.81,30.88-4.61,45.93,1.69,4.11,5.42,7.84,10.14,5.49,3.84-1.91,3.79-19.38,5-24.36,1.62-6.61,5.26-11.79,8.76-17.4Z"/>
  <path class="st0" d="M359.32,399.25c104.88-10.69,160.75,113.36,80.46,181.4-69.48,58.87-175.55,2.89-169.27-87.6,3.25-46.78,41.59-88.99,88.81-93.8ZM366.67,409.35c-67.37,5.2-106.69,78.2-73.71,137.39,34.57,62.05,125,62.34,160.89,1.18,38.04-64.82-13.09-144.29-87.18-138.57Z"/>
  <path class="st0" d="M253.06,705.02c.35,2.12,5.96,10.92,5.5,11.47l-39.45-11.94c2.98-3.78,7.1-7.08,7.34-12.38-3.01-18.23,4.82-60.96-1.95-76.05-1.69-3.76-4.95-6.07-6.3-9.75,19.81,4.03,40.17,6.48,59.82,11.29,17.1,4.19,32.07,10.42,33.81,30.42,1.58,18.14-2.29,26.25-18.95,32.53-.94.35-1.64-.49-1.18,1.36,9.16,15.14,16.08,31.86,27.44,45.52l-33.04-5.03-19.2-40.22-13.83-3.37c.93,7.92-1.26,18.6,0,26.15ZM253.06,632.07v29.37c10.19,1.17,29.82,8.38,32.04-6.96,3.19-22.1-16.57-19.63-32.04-22.41Z"/>
  <path class="st0" d="M432.01,726.58c3.78-5.72,7.52-10.72,8.25-17.9,1.7-16.85,1.57-52.77.05-69.77-.6-6.77-4.18-11.88-9.21-16.01,27.05-2.3,73.32-25.88,93.44,1.52,12.16,16.55,8.56,46.3-1.84,63-17.91,28.76-60.2,33.48-90.69,39.15ZM466.88,700.89c26.76-4.78,42.3-19.62,39.45-48.17-2.4-24.08-20.91-21.93-39.45-17.9v66.07Z"/>
  <path class="st0" d="M412.74,624.73v28.45c-10.5-14.07-28.95-6.41-44.05-8.25-.45.33.92,1.17.92,1.37v20.19c0,.28-1.16.7-.92,1.38h26.15c1.88,0,8.5-4.33,10.55-5.51v29.37c-8.66-8.33-20.21-5.04-30.75-4.5-2.68.14-4.65-1.75-5.93.37.01.35.89.65.89.92v23.4c5.04-.16,10.14.21,15.18.04,6.96-.24,17.37-.66,23.13-4.4,3.03-1.97,4.14-4.42,6.66-6.65v28.45h-81.67c3.85-4.61,8.21-7.82,9.1-14.3-1.45-23.63,2.2-50.08.12-73.37-.74-8.31-5.14-11.22-10.13-16.93h80.75Z"/>
  <path class="st0" d="M188.83,271.43c-4.87,5.21-9.29,10.4-10.1,17.88,1.58,28.74-2.08,59.66-.03,88.14.63,8.71,3.25,13.57,10.13,18.76l-53.22,11.02,6.58-9.47,2.59-8.42c-1.67-29.29,2.21-60.97.03-89.98-.6-8-2.99-12.06-9.22-16.93l53.22-11.01Z"/>
  <path class="st0" d="M605.44,491.68l-7.92,1.7c-33.99,3.74-68,8.15-102.2,9.3-.27-5.21,2.45-10.54,0-15.59l110.12,4.59Z"/>
  <path class="st0" d="M252.14,487.08c-1.18,4.93-1.7,10.79,0,15.59l-109.2-10.09,109.19-5.49Z"/>
  <path d="M411.6,272.58c48.28-6.52,47.53,85.97,10.67,90.51-52.35,6.45-49.32-85.29-10.67-90.51Z"/>
  <path d="M366.67,409.35c74.1-5.72,125.23,73.75,87.18,138.57-35.89,61.16-126.32,60.87-160.89-1.18-32.98-59.19,6.34-132.2,73.71-137.39ZM369.41,469.46l-.25-29.19c-5.27-2.95-21.72-13.78-27.08-12.45-9.37,2.33-21.86,15.18-28.26,22.29l-.64,28.77,26.85,9.89,2.95-.3c7.6-7.85,16.82-13.97,26.44-19.01ZM378.02,469.5c10.73,4.26,19.99,11.13,28.04,19.28l26.5-8.03c1.09-.21,1.53-.7,2.02-1.65,1.5-2.93,1.74-25.36.69-28.78-4.25-6.78-24.59-23.92-31.93-22.74-2.42.39-24.19,11.31-25.03,12.68l-.29,29.23ZM339.16,498.26l-29.49-9.21c-1.21.3-14.17,17.74-15.18,19.73-.88,1.74-1.07,2.31-.98,4.31.31,6.95,7.17,29.25,12.82,33.15,5.7,3.94,18.95,5.88,25.93,6.79,1.3-.38,15.43-20.27,15.88-21.88.7-2.53-4.43-14.6-5.59-18.37-1.46-4.75-2.63-9.6-3.38-14.51ZM440.09,489.08c-1.59-.93-25.42,6.82-28.52,8.31-1.35.65-2.53.56-3.23,2.28-1.34,3.26-1.98,10.18-3.21,14.23-1.7,5.61-4.38,10.95-5.25,16.71l15.31,22.46c2.15.69,23.48-5.12,25.95-6.83,5.87-4.06,14.12-29.6,12.85-36.62-.94-5.23-11.63-15.03-13.91-20.53ZM357.41,535.9l-17.08,21.5c4.94,8.19,8.45,17.93,16.17,23.99,10,.87,23.68,2.7,33.35-.21,7.18-2.16,12.97-17.65,17.06-23.92-.01-1.24-12.96-19-14.33-20.21-1.3-1.14-1.49-1.16-3.19-1.39-9.49-1.29-22.13.89-31.97.23Z"/>
  <path d="M253.06,632.07c15.46,2.77,35.23.3,32.04,22.41-2.22,15.34-21.84,8.13-32.04,6.96v-29.37Z"/>
  <path d="M466.88,700.89v-66.07c18.54-4.03,37.05-6.18,39.45,17.9,2.85,28.55-12.7,43.39-39.45,48.17Z"/>
  <path class="st0" d="M378.02,469.5l.29-29.23c.84-1.37,22.62-12.29,25.03-12.68,7.34-1.18,27.67,15.96,31.93,22.74,1.05,3.41.81,25.84-.69,28.78-.49.95-.92,1.44-2.02,1.65l-26.5,8.03c-8.05-8.16-17.31-15.02-28.04-19.28Z"/>
  <path class="st0" d="M369.41,469.46c-9.62,5.04-18.84,11.16-26.44,19.01l-2.95.3-26.85-9.89.64-28.77c6.4-7.11,18.9-19.95,28.26-22.29,5.36-1.34,21.82,9.5,27.08,12.45l.25,29.19Z"/>
  <path class="st0" d="M339.16,498.26c.75,4.91,1.92,9.76,3.38,14.51,1.16,3.77,6.29,15.84,5.59,18.37-.44,1.61-14.58,21.5-15.88,21.88-6.98-.9-20.23-2.85-25.93-6.79-5.65-3.9-12.51-26.2-12.82-33.15-.09-2,.1-2.58.98-4.31,1-1.98,13.97-19.42,15.18-19.73l29.49,9.21Z"/>
  <path class="st0" d="M440.09,489.08c2.28,5.5,12.96,15.31,13.91,20.53,1.27,7.01-6.98,32.56-12.85,36.62-2.47,1.71-23.8,7.52-25.95,6.83l-15.31-22.46c.87-5.76,3.55-11.1,5.25-16.71,1.23-4.05,1.87-10.97,3.21-14.23.7-1.71,1.88-1.63,3.23-2.28,3.1-1.48,26.93-9.23,28.52-8.31Z"/>
  <path class="st0" d="M357.41,535.9c9.84.65,22.49-1.53,31.97-.23,1.7.23,1.9.25,3.19,1.39,1.37,1.21,14.31,18.97,14.33,20.21-4.09,6.27-9.88,21.75-17.06,23.92-9.67,2.91-23.34,1.09-33.35.21-7.72-6.06-11.23-15.8-16.17-23.99l17.08-21.5Z"/>
</svg>